<?xml version="1.0" encoding="UTF-8" standalone="no"?>
<!-- Created with Inkscape (http://www.inkscape.org/) -->

<svg
   version="1.1"
   id="svg2"
   width="59.382965"
   height="62.125938"
   viewBox="0 0 59.382966 62.125938"
   sodipodi:docname="MCI_Logo.svg"
   inkscape:export-filename="MCI_Logo.pdf"
   inkscape:export-xdpi="3000"
   inkscape:export-ydpi="3000"
   inkscape:version="1.3.2 (091e20e, 2023-11-25, custom)"
   xmlns:inkscape="http://www.inkscape.org/namespaces/inkscape"
   xmlns:sodipodi="http://sodipodi.sourceforge.net/DTD/sodipodi-0.dtd"
   xmlns="http://www.w3.org/2000/svg"
   xmlns:svg="http://www.w3.org/2000/svg">
  <sodipodi:namedview
     id="namedview1"
     pagecolor="#ffffff"
     bordercolor="#000000"
     borderopacity="0.25"
     inkscape:showpageshadow="2"
     inkscape:pageopacity="0.0"
     inkscape:pagecheckerboard="0"
     inkscape:deskcolor="#d1d1d1"
     inkscape:zoom="29.295332"
     inkscape:cx="29.680496"
     inkscape:cy="20.139727"
     inkscape:window-width="3840"
     inkscape:window-height="2066"
     inkscape:window-x="3829"
     inkscape:window-y="-11"
     inkscape:window-maximized="1"
     inkscape:current-layer="svg2" />
  <defs
     id="defs6" />
  <g
     id="g8"
     transform="matrix(1.28,0,0,-1.28,-133.23398,127.98877)">
    <g
       id="g10"
       transform="matrix(0.1,0,0,0.1,16.94313,-3.4755139)"
       style="fill:#ececec;fill-opacity:1;fill-rule:evenodd">
      <path
         d="m 1265.07,728.387 c -18.97,-45.266 -57.79,-80.11 -105.52,-93.946 l -12.76,51.454 c 23.72,7.425 44.03,22.574 57.95,42.492 z m -106.85,221.394 c 43.91,-12.41 80.34,-42.648 100.97,-82.406 l -46.51,-24.324 c -13.69,26.273 -37.86,46.465 -66.84,55.222 z M 949.801,801.527 c 2.558,44.286 22.679,83.864 53.509,111.86 l 33.88,-40.731 C 1017.79,854.297 1005,829.02 1002.78,800.77 Z m 54.339,-131.789 c -31.363,28.102 -51.851,68.102 -54.351,112.899 l 52.961,0.867 c 2.15,-28.629 15.14,-54.231 34.89,-72.715 z m 47.02,30.242 c 17.78,-12.082 39.25,-19.144 62.37,-19.144 5.26,0 10.44,0.363 15.51,1.074 l 11.06,-51.855 c -8.65,-1.395 -17.52,-2.125 -26.57,-2.125 -35.23,0 -67.86,11.101 -94.58,30.004 z m -33.39,225.118 c 26.94,19.41 60.01,30.847 95.76,30.847 8.58,0 17.01,-0.66 25.23,-1.929 l -10.69,-51.926 c -4.76,0.625 -9.61,0.945 -14.54,0.945 -23.43,0 -45.16,-7.25 -63.08,-19.629 l -32.68,41.692 v 0"
         style="fill:#ececec;fill-opacity:1;fill-rule:evenodd;stroke:none"
         id="path12" />
      <path
         d="m 1113.53,559.152 c -50.96,0 -98.1,16.379 -136.432,44.157 l 32.192,42.015 c 29.41,-20.945 65.39,-33.269 104.24,-33.269 10.18,0 20.16,0.847 29.88,2.468 l 11.04,-51.789 c -13.28,-2.351 -26.96,-3.582 -40.92,-3.582 z M 933.902,782.375 c 2.598,-49.652 25.336,-93.973 60.196,-124.941 L 960.625,616.41 c -46.508,40.551 -76.742,99.266 -79.645,165.09 z m 59.254,143.223 C 958.891,894.723 936.555,850.852 933.918,801.75 l -52.934,0.758 c 2.914,65.144 32.598,123.32 78.317,163.797 z M 1273.5,874.266 c -22.68,43.992 -62.98,77.425 -111.57,90.961 l 12.37,51.473 c 63.44,-17.102 116.15,-60.352 145.87,-117.473 z M 1163.36,619.047 c 43.29,12.449 79.91,40.699 103.14,78.113 l 59.61,-0.359 C 1298.06,634.238 1243.17,586.32 1176.1,567.656 Z m -37.64,78.433 c -3.99,-0.511 -8.06,-0.769 -12.19,-0.769 -19.49,0 -37.61,5.852 -52.7,15.894 l 29.74,38.821 c 6.78,-3.844 14.61,-6.047 22.96,-6.047 l 1.96,0.043 z m -78.02,25.641 c -16.28,15.574 -27.03,36.867 -29.05,60.649 l 48.9,0.8 c 1.42,-8.929 5.39,-17.015 11.12,-23.492 z m 30.97,99.672 c -5.62,-6.344 -9.53,-14.23 -11.03,-22.949 l -48.96,0.703 c 2.11,23.437 12.7,44.43 28.68,59.879 z m 63.45,60.008 c 24.23,-7.617 44.29,-24.656 55.87,-46.832 l -43.11,-22.617 c -5.14,9.906 -13.73,17.722 -24.19,21.875 z m 5.33,-122.535 55.84,-0.328 c -9.9,-27.672 -32.27,-49.465 -60.33,-58.59 l -11.8,47.617 c 6.21,2.617 11.76,6.531 16.29,11.301 z m -33.92,264.454 c 13.33,0 26.39,-1.12 39.11,-3.27 l -10.68,-51.872 c -9.26,1.469 -18.76,2.235 -28.43,2.235 -39.44,0 -75.91,-12.692 -105.56,-34.211 l -32.661,41.656 c 38.651,28.572 86.461,45.462 138.221,45.462 z m -53.27,-153.837 c 15.21,10.281 33.54,16.285 53.27,16.285 3.84,0 7.62,-0.227 11.34,-0.668 l -9.89,-48.031 -1.45,0.027 c -8.4,0 -16.28,-2.226 -23.08,-6.117 z"
         style="fill:#ececec;fill-opacity:1;fill-rule:evenodd;stroke:none"
         id="path14" />
    </g>
    <path
       style="fill:#ececec;fill-opacity:1;fill-rule:evenodd;stroke-width:0.0441942"
       d="m 144.1172,67.791606 c -0.93581,-0.01615 -2.23653,-0.03219 -2.89048,-0.03565 l -1.189,-0.0063 0.0294,-0.580144 c 0.0875,-1.728352 0.4257,-3.895923 0.89561,-5.739622 1.29804,-5.092927 3.82805,-9.692049 7.48148,-13.600081 0.7011,-0.74996 1.97118,-1.957827 2.05475,-1.954111 0.0387,0.0017 4.16237,4.923797 4.45759,5.320624 l 0.078,0.104895 -0.75586,0.744356 c -1.71849,1.692342 -3.06914,3.471327 -4.22244,5.56152 -1.57385,2.852383 -2.60124,6.21791 -2.8466,9.324971 -0.0269,0.340295 -0.0584,0.683353 -0.0701,0.76235 l -0.0212,0.143631 -0.64986,-0.0085 c -0.35743,-0.0047 -1.41553,-0.02176 -2.35134,-0.03791 z"
       id="path6"
       transform="matrix(0.75000002,0,0,-0.75000002,0,127.56)" />
    <path
       style="fill:#ececec;fill-opacity:1;fill-rule:evenodd;stroke-width:0.0441942"
       d="m 154.7739,46.929349 -2.1817,-2.785943 0.10059,-0.07405 c 2.76503,-2.035491 6.03158,-3.674725 9.27227,-4.653053 4.00962,-1.210461 8.15946,-1.610916 12.29257,-1.186221 0.85467,0.08782 1.98623,0.245812 2.02285,0.282435 0.0173,0.01731 -1.3908,6.923535 -1.41561,6.94303 -0.006,0.0046 -0.18694,-0.01792 -0.40243,-0.05003 -1.15955,-0.172761 -1.82044,-0.215109 -3.3647,-0.215601 -1.62375,-5.16e-4 -2.1356,0.03234 -3.45985,0.2221 -3.57888,0.512837 -7.03747,1.857786 -10.06624,3.914486 -0.31745,0.215571 -0.58593,0.391238 -0.59662,0.390371 -0.0107,-8.66e-4 -1.00119,-1.25525 -2.20113,-2.78752 z"
       id="path7"
       transform="matrix(0.75000002,0,0,-0.75000002,0,127.56)" />
    <path
       style="fill:#ececec;fill-opacity:1;fill-rule:evenodd;stroke-width:0.0441942"
       d="m 160.46592,54.186569 c -1.19715,-1.527665 -2.17667,-2.795002 -2.1767,-2.816304 -8e-5,-0.05728 0.78285,-0.58708 1.53901,-1.041423 2.66293,-1.600041 5.73197,-2.623925 8.92722,-2.978272 0.3403,-0.03774 1.18551,-0.07964 1.87825,-0.09312 1.27847,-0.02488 1.94552,0.0061 3.17094,0.147286 0.51996,0.0599 0.62952,0.08493 0.62836,0.143522 -0.002,0.112658 -1.39957,6.856264 -1.4262,6.882897 -0.0132,0.01318 -0.24924,-0.0011 -0.52457,-0.03172 -0.70456,-0.07839 -2.30513,-0.06577 -3.06386,0.02415 -1.21136,0.143559 -2.4505,0.441218 -3.53554,0.849291 -0.93652,0.352214 -2.23729,1.014538 -2.99015,1.522518 l -0.25011,0.168756 z"
       id="path8"
       transform="matrix(0.75000002,0,0,-0.75000002,0,127.56)" />
    <path
       style="fill:#ececec;fill-opacity:1;fill-rule:evenodd;stroke-width:0.0441942"
       d="m 192.24953,57.94961 c -0.37629,-0.781111 -1.45295,-2.463883 -2.1702,-3.391903 -2.47711,-3.205058 -5.68617,-5.735765 -9.30306,-7.336528 -0.82029,-0.363041 -1.98722,-0.799369 -2.71794,-1.016264 -0.30384,-0.09019 -0.55665,-0.167738 -0.56181,-0.172339 -0.01,-0.0086 1.60838,-6.769506 1.64221,-6.8619 0.0353,-0.09652 2.00875,0.531097 3.37859,1.074529 5.35299,2.123593 9.99744,5.688564 13.46448,10.335027 0.88206,1.182115 1.75588,2.550928 2.44222,3.825661 l 0.2276,0.422709 -3.11352,1.665465 c -1.71243,0.916006 -3.13014,1.665466 -3.15048,1.665466 -0.0203,0 -0.0825,-0.09447 -0.13809,-0.209923 z"
       id="path9"
       transform="matrix(0.75000002,0,0,-0.75000002,0,127.56)" />
    <path
       style="fill:#ececec;fill-opacity:1;fill-rule:evenodd;stroke-width:0.0441942"
       d="m 184.04271,61.92861 c -0.95982,-1.760816 -2.6013,-3.575765 -4.39943,-4.864353 -1.09234,-0.782804 -2.59123,-1.539079 -3.9162,-1.975949 -0.20053,-0.06612 -0.3646,-0.144496 -0.3646,-0.174172 0,-0.02967 0.36792,-1.582453 0.81759,-3.450617 0.44968,-1.868164 0.8176,-3.401843 0.8176,-3.408175 0,-0.04484 1.49008,0.454237 2.18017,0.730204 4.09669,1.638269 7.58399,4.458642 10.05821,8.13464 0.41445,0.615755 0.9503,1.503926 1.17566,1.94864 l 0.10638,0.209934 -3.09357,1.617512 c -1.70146,0.889631 -3.11118,1.617511 -3.13271,1.617511 -0.0215,0 -0.13362,-0.173329 -0.2491,-0.385175 z"
       id="path10"
       transform="matrix(0.75000002,0,0,-0.75000002,0,127.56)" />
    <path
       style="fill:#ececec;fill-opacity:1;fill-rule:evenodd;stroke-width:0.0441942"
       d="m 167.74284,63.466527 c -1.71183,-2.153901 -3.78415,-4.841079 -3.76728,-4.885037 0.0328,-0.08555 1.00718,-0.653908 1.62407,-0.947352 1.56664,-0.745224 3.14697,-1.130851 5.01198,-1.223011 0.52662,-0.02602 1.90709,0.03894 1.96041,0.09226 0.0125,0.01246 -0.27294,1.461251 -0.63422,3.219543 l -0.65686,3.196895 -0.48935,0.02664 c -0.86326,0.04699 -1.68803,0.258028 -2.432,0.622278 l -0.38551,0.188744 z"
       id="path11"
       transform="matrix(0.75000002,0,0,-0.75000002,0,127.56)" />
    <path
       style="fill:#ececec;fill-opacity:1;fill-rule:evenodd;stroke-width:0.0441942"
       d="m 176.34547,65.926659 c -0.63647,-1.036302 -1.54724,-1.858509 -2.63896,-2.382356 -0.32865,-0.157695 -0.3799,-0.196928 -0.36089,-0.276264 0.0122,-0.05086 0.35513,-1.484584 0.76209,-3.18606 0.40696,-1.701475 0.74362,-3.099116 0.74814,-3.105867 0.0154,-0.02308 1.05839,0.375749 1.4789,0.565546 2.38794,1.077786 4.48078,2.991325 5.7889,5.29293 0.12826,0.225675 0.223,0.420521 0.21053,0.43299 -0.022,0.02198 -5.73504,3.023683 -5.7549,3.023683 -0.005,0 -0.11065,-0.164071 -0.23381,-0.364602 z"
       id="path13"
       transform="matrix(0.75000002,0,0,-0.75000002,0,127.56)" />
    <path
       style="fill:#ececec;fill-opacity:1;fill-rule:evenodd;stroke-width:0.0441942"
       d="m 161.40817,68.045341 c -2.46861,-0.03419 -3.01625,-0.05252 -3.01625,-0.100916 0,-0.03252 0.0308,-0.283552 0.0685,-0.557839 0.362,-2.63413 1.54921,-5.096692 3.39585,-7.043849 0.32957,-0.347504 0.38054,-0.385615 0.43746,-0.327049 0.0583,0.05996 3.57626,4.287532 3.97824,4.780651 l 0.16821,0.206346 -0.30618,0.403277 c -0.51266,0.675255 -0.9622,1.647965 -1.11889,2.421046 l -0.056,0.276214 -0.26738,-0.0081 c -0.14705,-0.0044 -1.62468,-0.02685 -3.28362,-0.04983 z"
       id="path15"
       transform="matrix(0.75000002,0,0,-0.75000002,0,127.56)" />
    <path
       style="fill:#ececec;fill-opacity:1;fill-rule:evenodd;stroke-width:0.0441942"
       d="m 152.14611,67.912847 -2.95334,-0.04178 0.0237,-0.204329 c 0.013,-0.112382 0.0356,-0.363429 0.0502,-0.557883 0.045,-0.598967 0.23829,-1.864577 0.39914,-2.613679 0.74588,-3.473691 2.29509,-6.642672 4.60963,-9.429234 0.45147,-0.543535 2.03377,-2.175157 2.09017,-2.155325 0.0186,0.0065 1.04866,1.232286 2.28897,2.723858 l 2.25511,2.71195 -0.46895,0.492127 c -2.31529,2.429712 -3.7141,5.401083 -4.08059,8.66805 -0.0245,0.218762 -0.0448,0.412663 -0.045,0.430894 -1.9e-4,0.01823 -0.27381,0.02954 -0.60803,0.02514 -0.33422,-0.0044 -1.93667,-0.02681 -3.56101,-0.04979 z"
       id="path16"
       transform="matrix(0.75000002,0,0,-0.75000002,0,127.56)" />
    <path
       style="fill:#ececec;fill-opacity:1;fill-rule:evenodd;stroke-width:0.0441942"
       d="m 155.75495,84.767426 c -0.9665,-0.95652 -1.71707,-1.823974 -2.43081,-2.809331 -2.34346,-3.235286 -3.73832,-7.013607 -4.07789,-11.045997 -0.0245,-0.290281 -0.0356,-0.536674 -0.0247,-0.547539 0.0211,-0.02107 7.0541,-0.14969 7.07441,-0.12938 0.007,0.0066 0.0349,0.220711 0.0628,0.475779 0.35841,3.27371 1.77085,6.278387 4.08812,8.696606 l 0.52039,0.54306 -0.14905,0.186144 c -1.08576,1.355953 -4.30704,5.271498 -4.34441,5.280737 -0.0273,0.0067 -0.35077,-0.28579 -0.71886,-0.650079 z"
       id="path17"
       transform="matrix(0.75000002,0,0,-0.75000002,0,127.56)" />
    <path
       style="fill:#ececec;fill-opacity:1;fill-rule:evenodd;stroke-width:0.0441942"
       d="m 149.92873,91.887433 c -3.99024,-3.690948 -7.00182,-8.494407 -8.58047,-13.685843 -0.6928,-2.278286 -1.16997,-4.934471 -1.28117,-7.131738 l -0.0294,-0.580145 0.57029,-0.0038 c 0.31365,-0.0021 1.90273,-0.02786 3.53129,-0.05723 1.62855,-0.02937 2.96639,-0.05044 2.97296,-0.04682 0.007,0.0036 0.042,0.352539 0.0787,0.775383 0.35208,4.057753 1.68494,7.870034 3.92245,11.21906 1.00898,1.510207 1.92498,2.606805 3.29683,3.946796 l 0.75866,0.741049 -2.23558,2.739242 c -1.22957,1.506584 -2.24951,2.738996 -2.26652,2.738693 -0.017,-3.02e-4 -0.34913,-0.294879 -0.73804,-0.654617 z"
       id="path18"
       transform="matrix(0.75000002,0,0,-0.75000002,0,127.56)" />
    <path
       style="fill:#ececec;fill-opacity:1;fill-rule:evenodd;stroke-width:0.0441942"
       d="m 161.83766,77.881183 c -1.66038,-1.754416 -2.77904,-3.908368 -3.24202,-6.242427 -0.11187,-0.563994 -0.22848,-1.405937 -0.19834,-1.432146 0.0156,-0.01357 5.63278,-0.116802 6.27523,-0.115323 l 0.29231,6.73e-4 0.026,0.187825 c 0.0967,0.697663 0.61018,1.850876 1.13319,2.544953 0.26889,0.356831 0.30346,0.423104 0.25581,0.490425 -0.16958,0.239584 -4.07481,4.996913 -4.10191,4.996913 -0.0179,0 -0.21601,-0.193902 -0.4403,-0.430893 z"
       id="path19"
       transform="matrix(0.75000002,0,0,-0.75000002,0,127.56)" />
    <path
       style="fill:#ececec;fill-opacity:1;fill-rule:evenodd;stroke-width:0.0441942"
       d="m 170.28015,81.817923 c -1.81084,-0.129701 -3.38688,-0.557744 -4.96619,-1.348788 -0.71836,-0.359811 -1.31872,-0.735666 -1.27976,-0.801192 0.0229,-0.03844 3.8436,-5.044891 3.93213,-5.152409 0.008,-0.0099 0.20889,0.07276 0.44614,0.183622 0.79554,0.371722 1.5271,0.554222 2.3861,0.595251 0.44251,0.02113 0.5443,0.03863 0.56135,0.09648 0.0497,0.168682 1.35335,6.336413 1.34172,6.347859 -0.007,0.007 -0.305,0.03433 -0.662,0.06078 -0.6047,0.04479 -1.29078,0.05197 -1.75949,0.0184 z"
       id="path20"
       transform="matrix(0.75000002,0,0,-0.75000002,0,127.56)" />
    <path
       style="fill:#ececec;fill-opacity:1;fill-rule:evenodd;stroke-width:0.0441942"
       d="m 174.94833,81.153398 c -0.0129,-0.04355 -0.36294,-1.451415 -0.77779,-3.128584 -0.41484,-1.677169 -0.76353,-3.079229 -0.77488,-3.11569 -0.0148,-0.04753 0.11111,-0.133192 0.44481,-0.302659 0.51761,-0.262867 1.05222,-0.640526 1.46067,-1.031846 l 0.27012,-0.258786 3.74119,0.03048 3.74119,0.03048 -0.0278,0.09221 c -0.13032,0.431633 -0.69617,1.616248 -1.06107,2.221342 -1.00321,1.66355 -2.53825,3.21226 -4.22147,4.259072 -0.58443,0.363463 -1.45496,0.794629 -2.11561,1.047847 -0.64874,0.248651 -0.65163,0.249315 -0.67932,0.156142 z"
       id="path21"
       transform="matrix(0.75000002,0,0,-0.75000002,0,127.56)" />
    <path
       style="fill:#ececec;fill-opacity:1;fill-rule:evenodd;stroke-width:0.0441942"
       d="m 169.35207,90.949497 c -2.8456,-0.240682 -5.47439,-0.962544 -7.93597,-2.179206 -0.46011,-0.227417 -1.03544,-0.52789 -1.27851,-0.66772 -0.64906,-0.373381 -1.71023,-1.080312 -1.69369,-1.128304 0.0194,-0.0562 4.24191,-5.567746 4.28691,-5.595554 0.0196,-0.0121 0.12028,0.0353 0.22379,0.105326 1.83937,1.244409 4.2183,2.089212 6.64054,2.358187 0.66381,0.07371 2.21585,0.07342 2.92956,-5.54e-4 0.32299,-0.03348 0.59876,-0.04937 0.61281,-0.03532 0.0261,0.02614 1.47367,6.767937 1.47367,6.863531 0,0.05969 -0.30797,0.116591 -1.19324,0.220484 -0.69954,0.08209 -3.34027,0.120496 -4.06587,0.05913 z"
       id="path22"
       transform="matrix(0.75000002,0,0,-0.75000002,0,127.56)" />
    <path
       style="fill:#ececec;fill-opacity:1;fill-rule:evenodd;stroke-width:0.0441942"
       d="m 176.33879,86.761368 c -0.46405,-1.86711 -0.84369,-3.423298 -0.84364,-3.458194 5e-5,-0.04044 0.1563,-0.118215 0.43089,-0.21448 1.72025,-0.60308 3.40187,-1.572459 4.76184,-2.744977 0.79708,-0.687217 1.83782,-1.818373 2.38682,-2.594173 l 0.13225,-0.186882 4.03751,-9.43e-4 4.03751,-9.44e-4 -0.0291,0.121534 c -0.0482,0.201257 -0.96648,2.029421 -1.29515,2.578444 -2.46986,4.12574 -6.06707,7.245797 -10.46755,9.079075 -0.55165,0.229823 -2.19623,0.816286 -2.28906,0.816286 -0.0102,0 -0.39825,-1.527635 -0.86231,-3.394746 z"
       id="path23"
       transform="matrix(0.75000002,0,0,-0.75000002,0,127.56)" />
    <path
       style="fill:#ececec;fill-opacity:1;fill-rule:evenodd;stroke-width:0.0441942"
       d="m 169.47157,100.14022 c -5.55113,-0.275361 -10.96619,-2.059268 -15.58746,-5.135043 -0.75433,-0.502063 -1.01646,-0.692673 -1.01646,-0.739135 0,-0.02652 4.15282,-5.482246 4.26823,-5.607348 0.009,-0.0093 0.34939,0.202055 0.75736,0.469686 3.49921,2.295544 7.33885,3.594566 11.52513,3.899171 0.79676,0.05797 2.47797,0.05777 3.27036,-4e-4 0.3403,-0.02498 0.95681,-0.08801 1.37002,-0.140065 0.41322,-0.05205 0.81023,-0.09617 0.88226,-0.09803 l 0.13095,-0.0034 0.73578,3.447145 c 0.6549,3.068195 0.72769,3.450283 0.6621,3.475686 -0.12625,0.0489 -1.62534,0.253849 -2.36689,0.323603 -1.57076,0.14774 -3.10888,0.18365 -4.63138,0.10812 z"
       id="path24"
       transform="matrix(0.75000002,0,0,-0.75000002,0,127.56)" />
    <path
       style="fill:#ececec;fill-opacity:1;fill-rule:evenodd;stroke-width:0.0441942"
       d="m 179.34142,98.867799 c -0.14118,-0.52432 -1.63665,-6.605493 -1.63665,-6.655289 0,-0.03718 0.19454,-0.120582 0.51928,-0.222621 3.67316,-1.154134 6.98833,-3.16327 9.7347,-5.899639 1.20089,-1.196527 2.12199,-2.310593 3.00466,-3.634156 l 0.46365,-0.695244 3.35876,-6.52e-4 c 3.55788,-6.92e-4 4.61829,0.02366 4.61829,0.106042 0,0.09406 -1.09035,2.218021 -1.47646,2.876088 -0.74453,1.268935 -1.86567,2.891526 -2.71773,3.933282 -1.35586,1.657706 -3.29093,3.567111 -4.88771,4.822886 -3.12406,2.456884 -6.57565,4.255305 -10.33296,5.383898 -0.28701,0.08621 -0.53981,0.156749 -0.56177,0.156749 -0.022,0 -0.0607,-0.0771 -0.0861,-0.171344 z"
       id="path25"
       transform="matrix(0.75000002,0,0,-0.75000002,0,127.56)" />
    <path
       style="fill:#ececec;fill-opacity:1;fill-rule:evenodd;stroke-width:0.0441942"
       d="m 179.36737,99.003545 c -0.0208,-0.03365 -0.79598,-3.140164 -1.32648,-5.315854 -0.41327,-1.694889 -0.40331,-1.507142 -0.086,-1.61939 0.14195,-0.05021 0.36748,-0.12615 0.50116,-0.168753 1.65553,-0.527576 3.76763,-1.516164 5.27465,-2.468842 1.68398,-1.064549 2.96273,-2.097207 4.39543,-3.549559 1.17529,-1.191415 1.97712,-2.175277 2.91806,-3.580547 l 0.3625,-0.541379 3.6341,2.65e-4 c 3.87549,2.83e-4 4.3633,0.01409 4.3633,0.123491 0,0.08861 -1.21036,2.454885 -1.48505,2.9033 -0.11903,0.19432 -0.23631,0.385625 -0.26062,0.425122 -0.0243,0.0395 -0.082,0.139045 -0.12821,0.221216 -0.17396,0.30936 -1.20498,1.807176 -1.63469,2.374807 -0.24574,0.32462 -0.49115,0.651614 -0.54535,0.726651 -0.17726,0.245415 -1.21509,1.411075 -1.75734,1.973789 -1.04975,1.089356 -2.21923,2.176174 -3.04967,2.834099 -1.60774,1.273746 -2.83356,2.086645 -4.77297,3.165179 -0.34956,0.194398 -1.85713,0.941013 -1.90009,0.941013 -0.009,0 -0.14187,0.05763 -0.29549,0.128069 -0.80847,0.370714 -2.53776,1.012303 -3.52022,1.306045 -0.54424,0.162721 -0.6499,0.181372 -0.68704,0.121278 z"
       id="path26"
       transform="matrix(0.75000002,0,0,-0.75000002,0,127.56)" />
    <path
       style="fill:#ececec;fill-opacity:1;fill-rule:evenodd;stroke-width:0.0441942"
       d="m 177.14817,90.03458 c -0.0154,-0.06684 -0.0738,-0.290576 -0.12992,-0.497184 -0.10977,-0.404409 -1.00701,-4.012315 -1.32766,-5.338686 -0.10754,-0.444831 -0.19553,-0.84555 -0.19553,-0.890488 0,-0.06414 0.1164,-0.124739 0.54138,-0.281857 1.56312,-0.577895 2.86217,-1.298162 4.13733,-2.29396 0.96976,-0.757313 2.24134,-2.078086 2.91521,-3.027999 l 0.10189,-0.143631 h 4.06176 4.06176 l -0.0447,0.121534 c -0.0664,0.18045 -0.34653,0.775468 -0.5666,1.203387 -0.1065,0.207105 -0.26252,0.515766 -0.34669,0.685914 -0.42136,0.851698 -1.32732,2.214596 -2.17389,3.270317 -0.75914,0.946698 -2.02733,2.252535 -2.90254,2.98871 -1.93695,1.629248 -4.21735,2.959007 -6.55872,3.824552 -0.64053,0.236787 -1.42549,0.500925 -1.48864,0.500925 -0.0311,0 -0.0691,-0.05469 -0.0844,-0.121534 z"
       id="path27"
       transform="matrix(0.75000002,0,0,-0.75000002,0,127.56)" />
    <path
       style="fill:#ececec;fill-opacity:1;fill-rule:evenodd;stroke-width:0.0441942"
       d="m 174.95149,81.19902 c -0.0126,-0.02037 -0.15552,-0.573855 -0.31763,-1.22997 -0.16211,-0.656114 -0.5125,-2.06798 -0.77865,-3.137479 -0.55937,-2.247753 -0.57025,-1.947598 0.0835,-2.303236 0.5459,-0.296986 0.91186,-0.560429 1.38235,-0.995106 0.0623,-0.05754 0.14467,-0.130141 0.1831,-0.161346 0.0552,-0.0448 0.56152,-0.05523 2.40585,-0.04959 1.28477,0.0039 2.53483,0.01385 2.7779,0.02204 0.24307,0.0082 0.87449,0.01559 1.40316,0.01644 0.78832,0.0013 0.96123,0.01255 0.96123,0.0627 0,0.110192 -0.35627,0.920621 -0.68715,1.563105 -0.33974,0.659687 -0.83323,1.439802 -1.19508,1.889179 -1.3489,1.675203 -2.77236,2.833093 -4.52593,3.681533 -0.94926,0.459288 -1.64285,0.722249 -1.69262,0.641722 z"
       id="path28"
       transform="matrix(0.75000002,0,0,-0.75000002,0,127.56)" />
    <path
       style="fill:#ececec;fill-opacity:1;fill-rule:evenodd;stroke-width:0.0441942"
       d="m 170.01499,81.817678 c -1.44883,-0.147865 -2.81847,-0.493318 -4.00599,-1.010401 -0.84968,-0.369976 -1.9241,-0.967294 -1.97405,-1.09746 -0.0119,-0.03101 0.11618,-0.23283 0.28462,-0.448479 0.16844,-0.215649 0.6235,-0.810792 1.01125,-1.32254 1.08536,-1.432471 2.26438,-2.97663 2.49042,-3.261693 0.0723,-0.09115 0.14815,-0.165728 0.16862,-0.165728 0.0205,0 0.25081,0.09159 0.51188,0.203522 0.8476,0.363412 1.29741,0.475752 2.23979,0.559392 l 0.61606,0.05468 0.0364,0.140954 c 0.041,0.159009 0.37092,1.705208 0.83265,3.902813 0.17109,0.814278 0.35217,1.675584 0.4024,1.914014 0.0502,0.23843 0.082,0.442876 0.0705,0.454325 -0.0757,0.0757 -2.12143,0.134071 -2.68452,0.0766 z"
       id="path29"
       transform="matrix(0.75000002,0,0,-0.75000002,0,127.56)" />
    <path
       style="fill:#ececec;fill-opacity:1;fill-rule:evenodd;stroke-width:0.0441942"
       d="m 169.1311,90.946747 c -0.62862,-0.05525 -1.48386,-0.179486 -2.40858,-0.349873 -1.2783,-0.23554 -3.32932,-0.893204 -4.5741,-1.466696 -0.59048,-0.272048 -1.88978,-0.935422 -2.20971,-1.128197 -0.48397,-0.291623 -1.21301,-0.775196 -1.23007,-0.815911 -0.008,-0.01934 -0.0398,-0.03516 -0.0705,-0.03516 -0.0307,0 -0.0908,-0.03871 -0.1336,-0.08601 -0.0746,-0.08247 -0.0736,-0.09203 0.0259,-0.232019 0.12358,-0.173938 0.67214,-0.901198 1.14351,-1.516026 0.18636,-0.243068 0.52116,-0.68059 0.74401,-0.972271 0.76168,-0.996951 1.13203,-1.476529 1.34807,-1.74567 0.0293,-0.03646 0.23169,-0.301797 0.44982,-0.589637 0.21814,-0.287841 0.42233,-0.55632 0.45377,-0.596622 0.0659,-0.08454 0.0253,-0.103832 0.91143,0.432506 0.98633,0.59697 1.99605,1.033563 3.27405,1.415668 1.82952,0.546998 3.55955,0.723144 5.58343,0.568486 0.52506,-0.04012 0.68524,-0.03989 0.71054,0.0011 0.018,0.02907 0.0886,0.31576 0.15688,0.637088 0.0683,0.321329 0.18197,0.84277 0.25259,1.158759 0.33398,1.494566 1.05264,4.918158 1.05264,5.014635 0,0.09047 -0.15759,0.135205 -0.77914,0.221166 -0.88176,0.121947 -3.69967,0.172739 -4.70094,0.08473 z"
       id="path30"
       transform="matrix(0.75000002,0,0,-0.75000002,0,127.56)" />
    <path
       style="fill:#ececec;fill-opacity:1;fill-rule:evenodd;stroke-width:0.0441942"
       d="m 169.08691,100.14043 c -2.90927,-0.18908 -5.80625,-0.794059 -8.59577,-1.795063 -2.32027,-0.832618 -4.77456,-2.077311 -6.8059,-3.451618 -0.3403,-0.230227 -0.66732,-0.464947 -0.72671,-0.5216 l -0.108,-0.103005 0.14982,-0.211408 c 0.0824,-0.116274 0.17574,-0.227312 0.20743,-0.24675 0.0317,-0.01944 0.0576,-0.05655 0.0576,-0.08247 0,-0.02592 0.10367,-0.179044 0.23037,-0.34027 0.12671,-0.161227 0.41843,-0.541749 0.64827,-0.845605 0.48258,-0.637967 1.27658,-1.679743 1.96519,-2.57842 0.26368,-0.344133 0.58849,-0.76972 0.7218,-0.94575 0.1333,-0.176029 0.25982,-0.330842 0.28116,-0.344027 0.0404,-0.025 0.42551,0.198303 1.15928,0.672301 0.23758,0.153473 0.44238,0.279042 0.45511,0.279042 0.0127,0 0.1266,0.06567 0.25304,0.145939 0.3032,0.192468 0.94957,0.538183 1.62671,0.870049 0.30126,0.147644 0.58445,0.289061 0.62932,0.314261 0.21186,0.118988 1.75971,0.715554 2.37119,0.913899 3.28522,1.065618 6.85705,1.427609 10.18676,1.032389 0.41321,-0.04905 0.8721,-0.101524 1.01975,-0.116616 l 0.26846,-0.02744 0.12214,0.566129 c 0.43203,2.00251 1.08579,5.105554 1.27594,6.056176 0.058,0.290151 0.0574,0.321236 -0.007,0.340212 -0.23781,0.0696 -1.622,0.257987 -2.43574,0.331505 -0.27953,0.0252 -0.60767,0.0566 -0.72921,0.0697 -0.40636,0.0437 -3.61627,0.0577 -4.22054,0.0185 z"
       id="path31"
       transform="matrix(0.75000002,0,0,-0.75000002,0,127.56)" />
    <path
       style="fill:#ececec;fill-opacity:1;fill-rule:evenodd;stroke-width:0.0441942"
       d="m 150.30438,92.249247 c -1.0242,-0.90433 -2.48301,-2.428025 -3.29329,-3.439778 -0.0968,-0.120832 -0.20912,-0.260043 -0.24966,-0.309359 -0.33167,-0.40348 -1.07507,-1.423186 -1.51522,-2.078403 -2.80545,-4.176275 -4.53859,-8.938072 -5.08291,-13.965359 -0.0581,-0.536514 -0.15675,-1.925464 -0.13856,-1.950823 0.0161,-0.02251 1.68518,-0.06209 3.45165,-0.08186 1.14241,-0.01279 2.42857,-0.03521 2.85812,-0.04984 l 0.781,-0.02659 0.0258,0.192772 c 0.0142,0.106024 0.056,0.491082 0.0929,0.855684 0.35491,3.508584 1.43783,6.886529 3.10766,9.693684 0.14955,0.251406 0.2719,0.466604 0.2719,0.478217 0,0.01161 0.22164,0.352821 0.49254,0.758238 0.97036,1.452232 1.64749,2.274162 3.03195,3.680269 0.56513,0.573971 1.02751,1.056266 1.02751,1.071767 0,0.0155 -0.0379,0.07308 -0.0842,0.127954 -0.0965,0.114239 -1.31453,1.602286 -2.11061,2.578407 -1.50327,1.843242 -2.26879,2.758496 -2.30683,2.758031 -0.0155,-1.9e-4 -0.17737,-0.132043 -0.35968,-0.293008 z"
       id="path32"
       transform="matrix(0.75000002,0,0,-0.75000002,0,127.56)" />
    <path
       style="fill:#ececec;fill-opacity:1;fill-rule:evenodd;stroke-width:0.0441942"
       d="m 155.7989,84.819668 c -0.60926,-0.598944 -0.87837,-0.882592 -1.41511,-1.491553 -0.28082,-0.318613 -0.30685,-0.351287 -0.83375,-1.046672 -2.00676,-2.648412 -3.42525,-5.879071 -4.02286,-9.162183 -0.16981,-0.93291 -0.37434,-2.685987 -0.31973,-2.740588 0.0357,-0.0357 2.23803,-0.09483 5.1468,-0.138176 l 1.95064,-0.02907 0.0249,0.128091 c 0.0137,0.07045 0.0471,0.317022 0.0741,0.547937 0.22698,1.940374 0.89086,3.932478 1.8562,5.569897 0.51385,0.871601 0.7864,1.267257 1.36999,1.988797 0.33183,0.41027 0.56091,0.665902 1.15936,1.293716 0.0911,0.09562 0.16573,0.191806 0.16573,0.213741 0,0.04166 -0.5305,0.705042 -1.90336,2.38014 -1.37844,1.681913 -1.60772,1.959865 -1.67637,2.032244 -0.0365,0.03844 -0.12068,0.142095 -0.18715,0.23034 -0.0665,0.08824 -0.14908,0.188652 -0.18355,0.223127 -0.0345,0.03448 -0.16477,0.185353 -0.28954,0.335282 -0.12478,0.14993 -0.24291,0.272599 -0.26252,0.272599 -0.0196,0 -0.31382,-0.273452 -0.65379,-0.60767 z"
       id="path33"
       transform="matrix(0.75000002,0,0,-0.75000002,0,127.56)" />
    <path
       style="fill:#ececec;fill-opacity:1;fill-rule:evenodd;stroke-width:0.0441942"
       d="m 162.08213,78.160044 c -0.0729,-0.07991 -0.24222,-0.262349 -0.37622,-0.405424 -0.47245,-0.504426 -0.88906,-1.037154 -1.29351,-1.654039 -0.74542,-1.136933 -1.33703,-2.475669 -1.6656,-3.769042 -0.18178,-0.715574 -0.35488,-1.672246 -0.35488,-1.961345 v -0.175793 l 1.04961,-0.02879 c 0.57729,-0.01583 2.05682,-0.04209 3.28786,-0.05834 l 2.23824,-0.02955 0.0539,0.261234 c 0.16956,0.821008 0.61073,1.785172 1.15085,2.515136 0.294,0.397347 0.29369,0.371246 0.009,0.73639 -0.13915,0.178349 -0.62118,0.773057 -1.07119,1.321574 -0.45001,0.548517 -1.02702,1.252684 -1.28224,1.564816 -0.25522,0.312131 -0.48419,0.589234 -0.50882,0.615783 -0.0246,0.02655 -0.22351,0.263907 -0.44194,0.52746 -0.57745,0.696713 -0.57344,0.692261 -0.61979,0.688586 -0.0234,-0.0019 -0.1022,-0.06875 -0.17512,-0.14866 z"
       id="path34"
       transform="matrix(0.75000002,0,0,-0.75000002,0,127.56)" />
    <path
       style="fill:#ececec;fill-opacity:1;fill-rule:evenodd;stroke-width:0.0441942"
       d="m 162.58151,68.082067 c -0.007,-0.0059 -0.93705,-0.02354 -2.06615,-0.03911 -1.2331,-0.017 -2.07009,-0.04549 -2.09595,-0.07135 -0.0525,-0.05254 0.0251,-0.690705 0.17268,-1.418949 0.39344,-1.941712 1.25226,-3.770138 2.52992,-5.386183 0.35176,-0.444929 1.05147,-1.194988 1.11477,-1.194988 0.0446,0 0.1763,0.153434 1.47965,1.723573 0.65574,0.78997 1.20318,1.446254 1.21652,1.458407 0.0134,0.01215 0.35985,0.42847 0.77001,0.925147 0.70913,0.858713 0.7427,0.907917 0.68378,1.002188 -0.0341,0.05453 -0.17318,0.254718 -0.3091,0.444872 -0.52322,0.73197 -0.86833,1.520309 -1.07619,2.458323 l -0.0275,0.12385 -1.18962,-0.0075 c -0.6543,-0.0041 -1.19559,-0.01235 -1.20287,-0.0183 z"
       id="path35"
       transform="matrix(0.75000002,0,0,-0.75000002,0,127.56)" />
    <path
       style="fill:#ececec;fill-opacity:1;fill-rule:evenodd;stroke-width:0.0441942"
       d="m 153.61527,67.954441 c -0.0101,-0.0089 -0.99983,-0.02744 -2.19933,-0.04118 -1.1995,-0.01374 -2.1922,-0.03626 -2.20599,-0.05006 -0.0338,-0.03376 0.0685,-1.178031 0.14998,-1.678581 0.036,-0.220877 0.0759,-0.481145 0.0888,-0.578372 0.0644,-0.486703 0.30683,-1.60478 0.50004,-2.306574 0.81743,-2.969257 2.23416,-5.700532 4.21357,-8.123251 0.45212,-0.55338 2.11671,-2.274737 2.20065,-2.275701 0.0144,-1.64e-4 0.16313,0.163772 0.33062,0.364303 0.16748,0.200531 0.3477,0.41432 0.40047,0.475087 0.10736,0.123629 3.26177,3.90774 3.46928,4.161832 0.0729,0.08924 0.18089,0.218511 0.24001,0.287262 0.0591,0.06875 0.10753,0.138095 0.10756,0.154095 3e-5,0.016 -0.16618,0.204931 -0.36937,0.419845 -1.64716,1.74226 -2.75432,3.536143 -3.45974,5.605665 -0.31202,0.915387 -0.5744,2.066635 -0.67989,2.983107 -0.0266,0.230914 -0.0574,0.464591 -0.0686,0.519281 l -0.0202,0.09944 h -1.33972 c -0.73684,0 -1.348,-0.0073 -1.35812,-0.0162 z"
       id="path36"
       transform="matrix(0.75000002,0,0,-0.75000002,0,127.56)" />
    <path
       style="fill:#ececec;fill-opacity:1;fill-rule:evenodd;stroke-width:0.0441942"
       d="m 142.19974,67.784113 c -1.1883,-0.01752 -2.16405,-0.0374 -2.16834,-0.04419 -0.0265,-0.04189 0.0773,-1.466484 0.15536,-2.133668 0.67214,-5.742331 2.77086,-10.919992 6.2698,-15.467961 0.20571,-0.267375 0.38503,-0.496079 0.39849,-0.508233 0.0135,-0.01215 0.13778,-0.161309 0.27624,-0.331456 0.13847,-0.170148 0.31741,-0.382995 0.39765,-0.472993 0.0802,-0.09 0.2851,-0.32258 0.45525,-0.516848 0.577,-0.658793 2.39969,-2.435208 2.49864,-2.435208 0.0358,0 0.61025,0.64559 1.09709,1.232888 0.13704,0.165319 0.89609,1.074214 1.68678,2.019768 1.53609,1.836959 1.77557,2.135313 1.7565,2.188376 -0.007,0.01858 -0.41095,0.437684 -0.8984,0.931345 -0.48744,0.493661 -1.06644,1.108586 -1.28667,1.366501 -1.69712,1.987547 -3.0717,4.282273 -4.05172,6.763923 -0.87908,2.226041 -1.35985,4.287254 -1.57549,6.754597 -0.0266,0.303835 -0.0592,0.588764 -0.0725,0.633175 -0.027,0.09008 -0.14978,0.09058 -4.93872,0.01999 z"
       id="path37"
       transform="matrix(0.75000002,0,0,-0.75000002,0,127.56)" />
    <path
       style="fill:#ececec;fill-opacity:1;fill-rule:evenodd;stroke-width:0.0441942"
       d="m 156.38126,49.00029 c -0.31228,-0.394985 -0.67029,-0.847423 -0.79557,-1.005417 -0.12528,-0.157994 -0.35956,-0.456305 -0.52063,-0.662913 -0.16107,-0.206608 -0.45787,-0.585618 -0.65956,-0.842245 -0.20169,-0.256626 -0.48603,-0.621578 -0.63187,-0.811004 -0.14584,-0.189426 -0.39524,-0.506474 -0.55423,-0.704552 -0.15898,-0.198077 -0.37022,-0.470195 -0.46942,-0.604705 l -0.18037,-0.244564 0.20426,-0.140323 c 0.11235,-0.07718 0.29376,-0.203595 0.40314,-0.280927 0.5451,-0.38539 0.78807,-0.545468 1.4805,-0.975402 2.05657,-1.27693 4.48429,-2.421708 6.54397,-3.085768 4.34843,-1.401975 8.52157,-1.864753 12.94566,-1.435603 0.84731,0.08219 2.03018,0.243585 2.09957,0.286471 0.0414,0.02561 0.042,0.08666 0.003,0.270547 -0.028,0.13061 -0.0619,0.307079 -0.0753,0.392153 -0.0134,0.08507 -0.17245,0.880569 -0.35344,1.767767 -0.181,0.887198 -0.36716,1.802017 -0.41369,2.032932 -0.0465,0.230914 -0.17498,0.853978 -0.28543,1.384585 -0.11044,0.530607 -0.20111,0.978073 -0.20149,0.994369 -0.003,0.13601 -0.0776,0.141635 -0.70974,0.05359 -0.9842,-0.137086 -1.71545,-0.178415 -3.15879,-0.178532 -1.48793,-1.2e-4 -2.16294,0.04178 -3.29025,0.204251 -2.58426,0.372447 -4.91609,1.088799 -7.18155,2.206215 -1.28958,0.636073 -1.7433,0.896486 -2.97686,1.708573 -0.32471,0.213762 -0.60461,0.388659 -0.62201,0.388659 -0.0174,0 -0.28712,-0.323169 -0.5994,-0.718155 z"
       id="path38"
       transform="matrix(0.75000002,0,0,-0.75000002,0,127.56)" />
    <path
       style="fill:#ececec;fill-opacity:1;fill-rule:evenodd;stroke-width:0.0441942"
       d="m 162.14842,56.3688 c -0.25522,-0.327385 -0.55353,-0.711735 -0.66291,-0.854114 -0.10938,-0.142378 -0.4773,-0.611967 -0.81759,-1.04353 -0.3403,-0.431564 -0.66844,-0.849973 -0.72921,-0.929799 -0.0608,-0.07982 -0.34877,-0.450592 -0.64,-0.823927 -0.29124,-0.373335 -0.62742,-0.808058 -0.74707,-0.966053 -0.11966,-0.157994 -0.23514,-0.310113 -0.25664,-0.338043 -0.052,-0.06759 0.29984,-0.332407 1.11338,-0.837996 1.07373,-0.667279 1.43266,-0.861645 2.49227,-1.349603 1.31589,-0.605977 3.09718,-1.208714 4.29154,-1.452137 0.14584,-0.02972 0.32483,-0.07109 0.39775,-0.09193 0.22958,-0.0656 1.43446,-0.261665 2.03293,-0.330807 0.80844,-0.0934 3.22806,-0.132755 4.08796,-0.06649 0.88667,0.06833 1.64114,0.168442 1.69801,0.225313 0.0471,0.04707 0.026,0.161326 -0.52226,2.827476 -0.72188,3.510725 -0.83925,4.053452 -0.88688,4.10109 -0.01,0.0098 -0.25287,-0.0026 -0.54008,-0.02754 -0.69867,-0.06077 -2.65403,-0.0282 -3.24013,0.05397 -1.84998,0.259384 -3.47955,0.779144 -5.03813,1.606947 -0.66785,0.354707 -0.73422,0.392951 -1.13953,0.656546 -0.20136,0.130962 -0.38035,0.237607 -0.39774,0.23699 -0.0174,-6.18e-4 -0.24045,-0.268983 -0.49567,-0.596367 z"
       id="path39"
       transform="matrix(0.75000002,0,0,-0.75000002,0,127.56)" />
    <path
       style="fill:#ececec;fill-opacity:1;fill-rule:evenodd;stroke-width:0.0441942"
       d="m 167.60009,63.325179 c -0.19098,-0.245858 -0.39696,-0.511656 -0.45772,-0.590662 -0.0608,-0.07901 -0.19998,-0.257274 -0.30936,-0.39615 -0.10938,-0.138877 -0.2486,-0.316244 -0.30936,-0.394149 -0.0608,-0.07791 -0.3901,-0.498948 -0.73185,-0.93565 -0.34174,-0.436704 -0.66893,-0.863612 -0.72707,-0.948686 -0.0581,-0.08507 -0.11756,-0.164623 -0.13204,-0.176777 -0.0145,-0.01215 -0.18438,-0.230914 -0.37758,-0.486135 -0.1932,-0.255222 -0.37758,-0.491689 -0.40975,-0.525483 -0.1477,-0.155184 -0.19646,-0.269217 -0.14276,-0.333916 0.0774,-0.09324 1.01668,-0.637201 1.52535,-0.883353 1.71822,-0.831473 3.60874,-1.262282 5.5256,-1.259166 0.6841,0.0011 1.46357,0.05344 1.51161,0.10148 0.0267,0.02669 -0.44936,2.50836 -0.76409,3.983195 -0.0571,0.267375 -0.1843,0.883883 -0.28276,1.370019 -0.0985,0.486136 -0.1886,0.927045 -0.20031,0.979798 -0.0185,0.08348 -0.06,0.09923 -0.31965,0.121476 -1.21857,0.1044 -1.78998,0.241578 -2.61252,0.627179 -0.22759,0.106697 -0.41937,0.193994 -0.42616,0.193994 -0.007,0 -0.1686,-0.201157 -0.35958,-0.447014 z"
       id="path40"
       transform="matrix(0.75000002,0,0,-0.75000002,0,127.56)" />
    <path
       style="fill:#ececec;fill-opacity:1;fill-rule:evenodd;stroke-width:0.0441942"
       d="m 176.22792,65.787138 c -0.61247,-0.927521 -1.39063,-1.628171 -2.39302,-2.15466 -0.27794,-0.145984 -0.50511,-0.288622 -0.50481,-0.316972 3e-4,-0.02835 0.10012,-0.469181 0.22182,-0.979624 0.1217,-0.510443 0.29997,-1.259603 0.39616,-1.664801 0.20794,-0.875955 0.51536,-2.150549 0.73633,-3.052927 0.0878,-0.358525 0.17413,-0.651864 0.19187,-0.651864 0.0177,0 0.21891,0.07095 0.44705,0.157661 0.22815,0.08671 0.46453,0.174205 0.5253,0.194425 0.0608,0.02022 0.22981,0.09025 0.37565,0.155619 2.0427,0.915601 3.78959,2.333342 5.1625,4.189788 0.49167,0.664842 1.00228,1.554685 0.9301,1.620914 -0.0209,0.01918 -0.21699,0.129197 -0.43575,0.24448 -0.84899,0.447404 -2.85199,1.501931 -3.31456,1.745027 -0.26738,0.140516 -0.78445,0.409529 -1.14905,0.597808 -0.3646,0.188279 -0.68181,0.359633 -0.7049,0.380787 -0.0939,0.08604 -0.16631,0.01649 -0.48469,-0.465661 z"
       id="path41"
       transform="matrix(0.75000002,0,0,-0.75000002,0,127.56)" />
    <path
       style="fill:#ececec;fill-opacity:1;fill-rule:evenodd;stroke-width:0.0441942"
       d="m 184.21029,62.260883 c -0.0292,-0.02924 -0.0532,-0.06801 -0.0532,-0.08615 0,-0.0577 -0.31048,-0.572049 -0.6897,-1.142578 -0.57583,-0.866336 -1.01694,-1.399339 -1.84997,-2.235367 -1.05433,-1.058119 -1.77804,-1.631667 -2.91831,-2.312774 -0.94348,-0.563562 -1.57507,-0.857018 -3.06045,-1.421972 -0.15191,-0.05778 -0.27621,-0.126295 -0.27621,-0.152254 0,-0.08241 0.2076,-0.976239 0.79515,-3.423575 0.28102,-1.170529 0.56145,-2.349079 0.69664,-2.927799 0.0759,-0.325021 0.1422,-0.51924 0.17719,-0.519281 0.0848,-9.9e-5 1.30012,0.406486 1.89372,0.633536 1.98289,0.758453 4.16192,1.995228 5.65622,3.210359 0.0754,0.06128 0.22398,0.181024 0.33027,0.266098 0.85969,0.688103 2.23468,2.051134 2.97928,2.953372 0.89986,1.090372 1.84523,2.474419 2.43425,3.56381 l 0.21212,0.392314 -0.1033,0.06974 c -0.0568,0.03836 -0.33392,0.190078 -0.61579,0.337162 -0.28187,0.147082 -0.79091,0.413125 -1.13121,0.591206 -0.34029,0.178082 -0.86731,0.453344 -1.17114,0.611694 -0.30384,0.158351 -0.7513,0.39167 -0.99437,0.518487 -1.19523,0.623593 -2.08608,1.075713 -2.16759,1.100089 -0.0498,0.01488 -0.11439,0.0031 -0.14363,-0.02611 z"
       id="path42"
       transform="matrix(0.75000002,0,0,-0.75000002,0,127.56)" />
    <path
       style="fill:#ececec;fill-opacity:1;fill-rule:evenodd;stroke-width:0.0441942"
       d="m 192.09836,57.701662 c -0.47901,-0.905034 -1.51591,-2.477057 -2.23408,-3.387022 -0.18224,-0.230915 -0.34282,-0.429789 -0.35683,-0.441942 -0.014,-0.01215 -0.1343,-0.151365 -0.2673,-0.309359 -1.2776,-1.51772 -3.09387,-3.130121 -4.88415,-4.335934 -1.91467,-1.289587 -3.91441,-2.246181 -6.22033,-2.975547 -0.35853,-0.113402 -0.65187,-0.210411 -0.65187,-0.215574 0,-0.04858 0.36093,-1.588314 0.70634,-3.013256 0.19081,-0.787146 0.27785,-1.149473 0.57329,-2.386485 0.34262,-1.434567 0.35714,-1.480505 0.46779,-1.480505 0.34177,0 2.55272,0.758253 4.08621,1.401378 0.75644,0.317239 2.82499,1.362877 3.49134,1.764846 0.27953,0.168623 0.55718,0.335615 0.617,0.371094 0.46006,0.272857 2.33532,1.566835 2.4324,1.678417 0.0121,0.01397 0.15137,0.122819 0.30936,0.24189 0.41456,0.31243 1.28153,1.038477 1.7645,1.47768 0.62714,0.570315 1.86336,1.821698 2.31706,2.345471 0.22107,0.255222 0.41297,0.473983 0.42645,0.486136 0.04,0.03612 0.67359,0.803672 0.82101,0.994673 1.10987,1.437985 1.78916,2.460069 2.79013,4.198143 0.28405,0.493227 0.37594,0.692934 0.33657,0.731494 -0.0202,0.01978 -0.14611,0.09401 -0.2798,0.164943 -0.51724,0.274452 -0.96094,0.511753 -1.21534,0.649985 -0.14584,0.07925 -0.42426,0.228917 -0.61872,0.332604 -0.19445,0.103687 -0.60214,0.321956 -0.90598,0.485043 -0.30383,0.163086 -0.7513,0.401733 -0.99437,0.530327 -0.24306,0.128594 -0.56126,0.297447 -0.7071,0.375228 -0.92663,0.494198 -1.47439,0.774143 -1.51475,0.774143 -0.0256,0 -0.15554,-0.206042 -0.28883,-0.457871 z"
       id="path43"
       transform="matrix(0.75000002,0,0,-0.75000002,0,127.56)" />
  </g>
</svg>
